<svg width="350" height="47" viewBox="0 0 350 47" fill="none" xmlns="http://www.w3.org/2000/svg">
<g clip-path="url(#clip0_2960_18663)">
<path fill-rule="evenodd" clip-rule="evenodd" d="M101.318 17.711C101.343 23.9484 101.369 29.4938 101.391 35.0393C101.391 35.7727 101.426 36.5093 101.391 37.2396C101.337 38.2887 100.813 38.968 99.7084 39.0349C98.4343 39.1146 97.834 38.3748 97.7893 37.2077C97.7254 35.4666 97.7542 33.7223 97.7446 31.9812C97.719 26.1105 97.6807 20.2398 97.6775 14.3691C97.6775 13.2211 97.3646 11.8658 98.9037 11.3556C100.392 10.8645 101.05 12.0029 101.768 12.9468C106.459 19.1332 111.143 25.3228 115.831 31.5156C116.834 30.9193 116.47 30.1061 116.47 29.4492C116.482 24.4044 116.422 19.3596 116.441 14.3149C116.444 12.9692 116.3 11.2791 118.277 11.2248C120.308 11.1674 120.151 12.8161 120.158 14.2001C120.193 21.4452 120.234 28.6934 120.241 35.9385C120.241 37.077 120.576 38.4482 118.976 38.9074C117.479 39.3379 116.865 38.1867 116.15 37.2428C111.351 30.9225 106.555 24.6053 101.318 17.7078V17.711Z" fill="white"/>
<path fill-rule="evenodd" clip-rule="evenodd" d="M227.982 11.1101C235.857 11.0463 242.419 17.4623 242.499 25.3037C242.582 33.1356 236.151 39.7397 228.327 39.8609C220.392 39.9821 213.875 33.6777 213.782 25.7852C213.687 17.6154 219.916 11.1739 227.982 11.1101ZM238.791 25.3101C238.724 19.4171 233.903 14.6274 228.066 14.6529C222.133 14.6784 217.212 19.6913 217.304 25.6194C217.397 31.4774 222.225 36.2256 228.101 36.2351C234.082 36.2447 238.859 31.3594 238.791 25.3133V25.3101Z" fill="white"/>
<path fill-rule="evenodd" clip-rule="evenodd" d="M129.91 24.9912C129.894 21.2284 129.945 17.4655 129.833 13.709C129.779 11.7989 130.606 11.0049 132.413 10.9985C137.283 10.9794 142.152 10.9538 147.022 10.9347C148.296 10.9283 149.634 11.142 149.628 12.6822C149.621 14.1618 148.382 14.4871 147.048 14.4839C143.19 14.4712 139.33 14.5541 135.472 14.4999C134.112 14.4775 133.601 14.7869 133.56 16.2952C133.374 23.1162 133.32 23.1098 140.16 23.0875C141.354 23.0811 142.548 23.0588 143.739 23.1449C144.72 23.215 145.544 23.5977 145.572 24.7807C145.604 26.0946 144.752 26.5697 143.637 26.5952C140.882 26.6558 138.126 26.6909 135.37 26.6239C134.099 26.5952 133.678 26.9428 133.617 28.2949C133.288 35.5272 133.243 35.5272 140.54 35.4953C142.836 35.4858 145.135 35.4985 147.431 35.4571C148.705 35.4347 149.733 35.8557 149.717 37.2173C149.698 38.6013 148.6 38.9106 147.361 38.9106C142.398 38.9106 137.439 38.917 132.477 38.9776C130.568 38.9999 129.9 38.1229 129.932 36.2766C129.999 32.5169 129.926 28.7541 129.907 24.9912H129.91Z" fill="white"/>
<path fill-rule="evenodd" clip-rule="evenodd" d="M329.993 25.2973C329.977 21.6301 329.986 17.9597 329.935 14.2925C329.906 12.258 330.749 11.2535 332.876 11.2663C337.65 11.2982 342.424 11.2344 347.201 11.228C348.443 11.228 349.781 11.3747 349.79 12.9819C349.803 14.5668 348.551 14.7677 347.252 14.7677C343.394 14.7677 339.537 14.8538 335.683 14.7804C334.201 14.7549 333.655 15.0834 333.639 16.7224C333.566 23.3999 333.502 23.3967 340.109 23.3712C341.392 23.368 342.682 23.3361 343.963 23.4222C344.943 23.4892 345.808 23.9197 345.818 25.0613C345.828 26.3177 344.962 26.8471 343.832 26.8694C341.079 26.9268 338.32 26.981 335.571 26.9013C334.166 26.863 333.735 27.2744 333.697 28.7285C333.508 35.8078 333.46 35.8078 340.466 35.7759C342.762 35.7663 345.058 35.7727 347.354 35.7408C348.65 35.7217 349.899 35.9098 349.905 37.5011C349.912 38.9265 348.772 39.1784 347.558 39.1816C342.599 39.1912 337.64 39.1752 332.684 39.2613C330.526 39.2964 330.04 38.0655 330.034 36.2893C330.024 32.6221 330.005 28.9549 329.989 25.2877L329.993 25.2973Z" fill="white"/>
<path fill-rule="evenodd" clip-rule="evenodd" d="M180.327 21.9492C180.337 24.4269 180.292 26.9046 180.372 29.3792C180.474 32.4628 179.296 34.982 176.914 36.8029C172.638 40.0746 167.871 40.1416 163.113 38.1486C158.783 36.3341 157.25 32.6861 157.307 28.1547C157.368 23.3841 157.272 18.6136 157.275 13.8431C157.275 12.5324 157.323 11.0847 159.131 11.0432C160.98 11.0018 160.986 12.4017 160.986 13.7538C160.992 18.7093 160.996 23.6616 161.053 28.6139C161.107 33.1771 163.825 35.8175 168.506 35.9419C173.641 36.079 176.665 33.6427 176.792 28.9232C176.93 23.8816 176.792 18.8336 176.764 13.7889C176.757 12.4846 176.598 11.005 178.475 10.9635C180.346 10.9221 180.295 12.3571 180.292 13.6932C180.289 16.4452 180.311 19.1972 180.324 21.9492H180.327Z" fill="white"/>
<path fill-rule="evenodd" clip-rule="evenodd" d="M193.787 26.5825C193.799 29.8861 193.835 33.1898 193.819 36.4934C193.812 37.8104 193.745 39.2678 191.909 39.2104C190.284 39.1593 190.197 37.871 190.191 36.6051C190.169 29.0793 190.169 21.5536 190.073 14.0279C190.051 12.1337 190.855 11.2982 192.663 11.3142C195.048 11.3397 197.443 11.2759 199.815 11.4832C203.401 11.7957 206.291 14.2575 207.22 17.5229C208.214 21.0211 207.185 24.7839 204.155 26.8121C202.443 27.9601 202.747 28.6425 203.743 29.9403C205.247 31.9015 206.575 33.9934 207.987 36.0247C208.702 37.0515 208.929 38.1453 207.786 38.9106C206.674 39.6568 205.761 39.1274 205.027 38.0624C202.795 34.8129 200.496 31.6113 198.254 28.3682C197.028 26.592 197.622 25.5652 199.621 24.9625C202.903 23.974 204.286 22.0383 203.903 19.2289C203.542 16.5854 201.361 14.9591 198.101 14.9112C195.195 14.8666 193.748 16.2782 193.761 19.146C193.771 21.6238 193.783 24.1015 193.793 26.5793L193.787 26.5825Z" fill="white"/>
<path fill-rule="evenodd" clip-rule="evenodd" d="M307.449 27.7751C307.461 30.5876 307.506 33.4002 307.471 36.2128C307.455 37.5585 307.637 39.2486 305.657 39.3219C303.55 39.4017 303.859 37.6924 303.853 36.3467C303.815 29.0921 303.786 21.8374 303.757 14.5827C303.751 13.2115 303.495 11.5182 305.542 11.5629C307.493 11.6075 307.359 13.2976 307.382 14.6657C307.423 17.3092 307.413 19.956 307.426 23.2883C310.38 20.4152 312.899 17.9693 315.416 15.5203C316.664 14.3053 317.925 13.0999 319.161 11.869C320.043 10.9921 321.032 10.5425 322.032 11.5246C323.041 12.5164 322.588 13.5049 321.7 14.3787C318.561 17.475 315.521 20.6767 312.264 23.6423C310.894 24.8891 310.83 25.4855 312.229 26.7355C315.377 29.5513 318.347 32.5647 321.381 35.5017C322.323 36.4137 323.418 37.4182 322.172 38.7352C320.921 40.0586 319.829 39.07 318.928 38.1006C315.495 34.4079 312.095 30.6865 308.681 26.9747C308.269 27.2393 307.861 27.504 307.449 27.7687V27.7751Z" fill="white"/>
<path fill-rule="evenodd" clip-rule="evenodd" d="M285.125 17.7301C282.599 23.9484 280.274 29.6756 277.947 35.4028C277.57 36.3339 277.206 37.2746 276.8 38.193C276.324 39.2772 275.472 39.7651 274.361 39.3123C273.233 38.8499 273.048 37.8805 273.431 36.7899C273.61 36.2733 273.818 35.7631 274.025 35.2593C276.957 28.1672 279.888 21.0784 282.819 13.9864C283.27 12.8926 283.576 11.5851 285.106 11.617C286.607 11.6489 286.897 12.95 287.36 14.0438C290.435 21.2729 293.52 28.4989 296.604 35.7248C297.16 37.0291 297.811 38.4768 295.988 39.2071C294.146 39.9437 293.686 38.413 293.156 37.0992C291.004 31.7643 288.826 26.4389 286.645 21.1135C286.249 20.1472 285.789 19.2033 285.128 17.7333L285.125 17.7301Z" fill="white"/>
<path fill-rule="evenodd" clip-rule="evenodd" d="M250.546 25.4951C250.53 21.914 250.488 18.3329 250.511 14.7518C250.52 13.3678 250.511 11.7479 252.503 11.7957C254.346 11.8404 254.224 13.3551 254.231 14.6529C254.259 20.6225 254.48 26.5984 254.224 32.5552C254.097 35.5145 255.115 36.114 257.766 35.9003C260.691 35.6675 263.647 35.8078 266.588 35.8238C267.843 35.8302 269.111 36.0151 269.098 37.6701C269.085 39.2646 267.93 39.5388 266.614 39.542C262.201 39.5516 257.785 39.5133 253.372 39.6217C251.287 39.6727 250.594 38.6523 250.59 36.79C250.584 33.024 250.562 29.2611 250.543 25.4951H250.546Z" fill="white"/>
<path d="M288.915 32.5618C288.919 33.5663 288.338 34.3826 287.613 34.3858L282.794 34.4049C282.072 34.4049 281.482 33.595 281.479 32.5905C281.475 31.586 282.057 30.7696 282.781 30.7664L287.6 30.7473C288.325 30.7473 288.912 31.5573 288.919 32.5618H288.915Z" fill="white"/>
<path d="M-0.00209959 37.3327C0.0617644 32.1699 4.05965 28.2349 9.36036 28.1233C19.8628 27.9032 27.8235 20.0108 28.0502 9.59277C28.1683 4.09517 32.0928 0.0644529 37.3903 0.000675612C42.6686 -0.0599128 46.9443 3.96124 46.9188 9.40144C46.8741 19.2773 54.9497 28.0818 65.7714 28.1392C70.4718 28.1647 74.1919 31.4875 74.9711 36.1209C75.8556 41.373 71.8577 46.3891 66.3813 46.8993C61.1285 47.3872 56.3994 43.2098 56.2621 37.9545C55.9747 27.0008 47.8672 18.7639 37.4222 18.815C27.3924 18.8628 19.1411 26.8828 18.7931 36.9213C18.6143 42.0331 16.13 45.4707 11.7968 46.5868C5.60835 48.1908 -0.0819296 43.7264 -0.00209959 37.3327Z" fill="white"/>
<path d="M65.564 18.8087C60.2154 18.7768 56.2271 14.6727 56.2654 9.23891C56.3005 4.02512 60.4645 0.000773963 65.778 0.0549846C70.9541 0.106006 75.1276 4.36314 75.0766 9.53866C75.0223 14.7014 70.7753 18.8406 65.564 18.8087Z" fill="#CE152F"/>
</g>
<defs>
<clipPath id="clip0_2960_18663">
<rect width="350" height="47" fill="white"/>
</clipPath>
</defs>
</svg>
